<svg id="Composant_2_1" data-name="Composant 2 – 1" xmlns="http://www.w3.org/2000/svg" width="459" height="80" viewBox="0 0 459 80">
  <line id="Ligne_5" data-name="Ligne 5" x2="459" transform="translate(0 40.5)" fill="none" stroke="#0095e3" stroke-width="1"/>
  <circle id="Ellipse_12" data-name="Ellipse 12" cx="40" cy="40" r="40" transform="translate(189.5)" fill="#0095e3"/>
  <g id="Groupe_30" data-name="Groupe 30" transform="translate(103.351 -228.438)">
    <path id="Tracé_34" data-name="Tracé 34" d="M147.281,308.951v17.98a4.655,4.655,0,0,1-4.649,4.65H109.649a4.655,4.655,0,0,1-4.649-4.65V303.773a4.654,4.654,0,0,1,4.649-4.649H130.1a.79.79,0,0,1,0,1.58H109.649a3.073,3.073,0,0,0-3.07,3.07v2.354l18.067,8.774a3.4,3.4,0,0,0,2.989,0l8.828-4.284a.79.79,0,1,1,.69,1.421l-8.828,4.284a4.973,4.973,0,0,1-4.369,0l-17.376-8.439v19.047a3.073,3.073,0,0,0,3.07,3.07h32.982a3.073,3.073,0,0,0,3.07-3.07v-17.98a.79.79,0,0,1,1.58,0Z" transform="translate(0 -43.709)" fill="#fff"/>
    <path id="Tracé_35" data-name="Tracé 35" d="M373.667,252.006a7.008,7.008,0,1,0-4.9,12.021.79.79,0,1,0,0-1.58,5.428,5.428,0,1,1,3.793-9.312c1.815,1.773,1.636,3.7,1.636,5.1a.878.878,0,1,1-1.755,0v-1.228a3.686,3.686,0,1,0-1.126,2.648,2.458,2.458,0,0,0,4.461-1.42V257.02A6.955,6.955,0,0,0,373.667,252.006Zm-4.909,7.107a2.106,2.106,0,1,1,2.106-2.106A2.109,2.109,0,0,1,368.758,259.113Z" transform="translate(-228.48)" fill="#fff"/>
    <rect id="Rectangle_54" data-name="Rectangle 54" width="21.701" height="1.652" transform="matrix(0.707, -0.707, 0.707, 0.707, 106.662, 285.806)" fill="#fff"/>
    <rect id="Rectangle_55" data-name="Rectangle 55" width="1.652" height="21.701" transform="translate(129.497 271.242) rotate(-45)" fill="#fff"/>
  </g>
</svg>
