<svg id="Composant_3_1" data-name="Composant 3 – 1" xmlns="http://www.w3.org/2000/svg" xmlns:xlink="http://www.w3.org/1999/xlink" width="459" height="80" viewBox="0 0 459 80">
  <defs>
    <clipPath id="clip-path">
      <rect id="Rectangle_51" data-name="Rectangle 51" width="23.667" height="37.867"/>
    </clipPath>
  </defs>
  <line id="Ligne_6" data-name="Ligne 6" x2="459" transform="translate(0 40.5)" fill="none" stroke="#000" stroke-width="1"/>
  <g id="Ellipse_13" data-name="Ellipse 13" transform="translate(189.5)" fill="#fff" stroke="#000" stroke-width="1">
    <circle cx="40" cy="40" r="40" stroke="none"/>
    <circle cx="40" cy="40" r="39.5" fill="none"/>
  </g>
  <g id="Groupe_31" data-name="Groupe 31" transform="translate(41.667 -207.993)">
    <g id="Groupe_22" data-name="Groupe 22" transform="translate(176 229.559)">
      <g id="Groupe_21" data-name="Groupe 21" transform="translate(0 0)" clip-path="url(#clip-path)">
        <path id="Tracé_15" data-name="Tracé 15" d="M240.207,300.26a6.156,6.156,0,1,0-6.156-6.156,6.163,6.163,0,0,0,6.156,6.156Zm0-10.111a3.955,3.955,0,1,1-3.956,3.955,3.96,3.96,0,0,1,3.956-3.955Zm0,0" transform="translate(-228.374 -281.958)"/>
        <path id="Tracé_16" data-name="Tracé 16" d="M181.963,252.784c1.667,2.257,1,1.379,5.8,8.237a1.1,1.1,0,0,0,1.8,0c4.825-6.89,4.161-6.018,5.8-8.238a28,28,0,0,0,4.322-7.3,11.364,11.364,0,0,0-1.659-10.994,11.839,11.839,0,0,0-18.732,0,11.364,11.364,0,0,0-1.659,10.994,27.989,27.989,0,0,0,4.322,7.3Zm-.923-16.95a9.639,9.639,0,0,1,15.252,0h0a9.229,9.229,0,0,1,1.319,8.93,26.357,26.357,0,0,1-4.012,6.713c-1.217,1.648-.853,1.144-4.933,6.992-4.076-5.843-3.716-5.345-4.933-6.992a26.358,26.358,0,0,1-4.012-6.713,9.23,9.23,0,0,1,1.319-8.93Zm0,0" transform="translate(-176.833 -229.577)"/>
        <path id="Tracé_17" data-name="Tracé 17" d="M190.114,508.035a1.1,1.1,0,0,0-1.518-.343l-3.128,1.976a1.1,1.1,0,0,0,0,1.86l9.858,6.226a1.1,1.1,0,0,0,1.175,0l9.858-6.226a1.1,1.1,0,0,0,0-1.86l-3.128-1.976a1.1,1.1,0,0,0-1.175,1.861l1.656,1.046-7.8,4.925-7.8-4.925,1.656-1.046a1.1,1.1,0,0,0,.343-1.518Zm0,0" transform="translate(-184.08 -480.058)"/>
      </g>
    </g>
  </g>
</svg>
