<?xml version="1.0" encoding="utf-8"?>
<!-- Generator: Adobe Illustrator 25.0.0, SVG Export Plug-In . SVG Version: 6.00 Build 0)  -->
<svg version="1.1" id="Calque_1" xmlns="http://www.w3.org/2000/svg" xmlns:xlink="http://www.w3.org/1999/xlink" x="0px" y="0px"
	 viewBox="0 0 200 200" style="enable-background:new 0 0 200 200;" xml:space="preserve">
<style type="text/css">
	.st0{fill-rule:evenodd;clip-rule:evenodd;fill:#FFFFFF;}
	.st1{filter:url(#Adobe_OpacityMaskFilter);}
	.st2{mask:url(#mask-2_1_);fill-rule:evenodd;clip-rule:evenodd;fill:#FFFFFF;}
	.st3{filter:url(#Adobe_OpacityMaskFilter_1_);}
	.st4{mask:url(#mask-4_1_);fill-rule:evenodd;clip-rule:evenodd;fill:#1D1D1B;}
	.st5{fill-rule:evenodd;clip-rule:evenodd;fill:#1D1D1B;}
	.st6{filter:url(#Adobe_OpacityMaskFilter_2_);}
	.st7{mask:url(#mask-6_1_);fill-rule:evenodd;clip-rule:evenodd;fill:#1D1D1B;}
	.st8{filter:url(#Adobe_OpacityMaskFilter_3_);}
	.st9{mask:url(#mask-8_1_);fill-rule:evenodd;clip-rule:evenodd;fill:#FFFFFF;}
</style>
<desc>Created with Sketch.</desc>
<path id="Fill-1" class="st0" d="M55.3,30.4c-5.9-5.5-3.6-14.9-2-18.8c1-2.4,2.3-1.6,3.6,2.8c0.8,2.7,4.3,11.4,3.4,13.1
	C59.6,29.3,57.5,32.4,55.3,30.4"/>
<path id="Fill-3" class="st0" d="M78.7,69.8c-0.6,0.9-0.2,1.9,1.1,2.3c1.3,0.5,4.7-0.2,5.6,2.8c0.9,3,0,10.6-0.8,13.5
	c-0.8,2.8,0.4,3.7,1.1,4.2c3.1,2.3,9.7,5.2,18.8-0.2c6.1-3.6,22.7-21.3,24.1-24.7c1.1-2.8,0.2-2.3-1.9-1.6
	c-6.3,2.2-17.5,5.8-28.9,17.2c-2,2-3.6,2.3-5.5,2c-4.1-0.7-5.6-12.8-3.9-17.7c0.7-1.8,0.3-2.4-0.5-2.8c-0.5-0.3-1.1-0.5-3,0
	C81.1,66,78.7,69.8,78.7,69.8"/>
<path id="Fill-5" class="st0" d="M99.3,24.5c-0.9-1.8-6.5-3.5-9.1-4.2c-2-0.5-0.8,2.1-0.2,3.8c1.2,3.2,6.3,7.6,9.4,6.7
	C101.1,30.4,100.4,26.6,99.3,24.5"/>
<path id="Fill-7" class="st0" d="M95.5,38.6c-2.4-0.8-9.9-1.5-12.3-1.8c-2.3-0.3-0.7,1.9,0,3.9c0.6,2,8,6.3,10.8,4.2
	C95.5,43.7,97.5,39.3,95.5,38.6"/>
<path id="Fill-9" class="st0" d="M126.5,38.8c1.4-0.5,5.9-0.7,7.3-0.8c1.3-0.1,1.1,1.8,0.1,2.6c-2,1.8-4.6,4-6.4,2.5
	C126.6,42.3,125.3,39.3,126.5,38.8"/>
<g id="Group-13" transform="translate(106.873385, 0.451297)">
	<g id="Clip-12">
	</g>
	<defs>
		<filter id="Adobe_OpacityMaskFilter" filterUnits="userSpaceOnUse" x="0.4" y="6" width="8.4" height="16.1">
			<feColorMatrix  type="matrix" values="1 0 0 0 0  0 1 0 0 0  0 0 1 0 0  0 0 0 1 0"/>
		</filter>
	</defs>
	<mask maskUnits="userSpaceOnUse" x="0.4" y="6" width="8.4" height="16.1" id="mask-2_1_">
		<g class="st1">
			<polygon id="path-1_1_" class="st0" points="0.4,6 8.8,6 8.8,22.1 0.4,22.1 			"/>
		</g>
	</mask>
	<path id="Fill-11" class="st2" d="M6.7,22.1c0.8,0.2,1.8-0.5,2-1.7c0.7-3.9-2.1-9.9-3.1-12c-0.9-1.8-4.1-3.1-4.1-2
		c-0.3,5.7-2,8.8-0.2,12.7C2,20.9,6.7,22.1,6.7,22.1"/>
</g>
<path id="Fill-14" class="st0" d="M56.3,78c1.5-0.4,3.7-1.6,2.8-2c-7-3.3-10.4-14.1-8.7-28.4c0.2-1.5-1.5,0.3-2.1,1.9
	C47.8,50.6,36.3,83.7,56.3,78"/>
<path id="Fill-16" class="st0" d="M135.4,63.6c2.3,2.6,8,11.4,8.2,14.8c0.2,4.3-4.4,6.3-6.7,7.4c-2.3,1.1-28.8,8.9-33.5,13.5
	c-3.3,3.2,0.1,2,1.7,1.8c7.1-1.3,28.1-0.3,39.9-4.3c11.6-3.9,10.4-14,9.2-17.4c-1.3-3.7-7.8-14.8-17.8-18.1
	C132.9,60,133.8,61.8,135.4,63.6"/>
<path id="Fill-18" class="st0" d="M106.7,55.1c-1.2-1.1-2.7-2.6-1.9-2.9c1.5-0.7,6.8-2.6,8.4-4.2c3.5-3.6,4.4-15.5-5.3-17.9
	c-1.2-0.3-0.7-1.7,1.9-1.9c13.5-0.8,14.3,13.4,12.6,19c-1.3,4.2-4.4,5.1-3.3,7.5c1,2.3,6,2.6,7.4,3.7c0.6,0.5-0.6,1-2.4,1.2
	C122.3,59.8,112.1,60.2,106.7,55.1"/>
<path id="Fill-20" class="st0" d="M76,99.4c-0.8-0.4-2-3.2-3.2-4.9c-0.9-1.3-3.1-4.2-4-5.7C67,85.9,57.2,53.1,56.5,49
	c-0.6-3.6-1.1-7.6-0.1-9.3c1.3-2.1,8.1-5.5,8.7-4.5c1.6,2.9,5.7,38.8,12.5,63.5C77.9,99.8,76.5,99.7,76,99.4"/>
<path id="Fill-22" class="st0" d="M121.7,27.6c-0.2-0.8,1.1-2.7,2.3-3.2c1.8-0.7,3.2-0.8,4.1-0.8c1.7,0.1,3,0.4,2.5,1.3
	c-0.6,1-2.9,5.2-5.6,6C122.9,31.5,121.8,28.3,121.7,27.6"/>
<g id="Group-26" transform="translate(0.000000, 102.466801)">
	<g id="Clip-25">
	</g>
	<defs>
		<filter id="Adobe_OpacityMaskFilter_1_" filterUnits="userSpaceOnUse" x="0" y="6.4" width="39.5" height="32">
			<feColorMatrix  type="matrix" values="1 0 0 0 0  0 1 0 0 0  0 0 1 0 0  0 0 0 1 0"/>
		</filter>
	</defs>
	<mask maskUnits="userSpaceOnUse" x="0" y="6.4" width="39.5" height="32" id="mask-4_1_">
		<g class="st3">
			<polygon id="path-3_1_" class="st0" points="0,6.4 39.5,6.4 39.5,38.4 0,38.4 			"/>
		</g>
	</mask>
	<path id="Fill-24" class="st4" d="M11.8,9.8c1.1,1.5,2.4,3.1,3.8,4.8c1.4,1.7,2.9,3.6,4.4,5.4c1.5,1.9,3,3.6,4.4,5.2
		c1.4,1.6,2.6,3,3.7,4.3c1.1,1.2,1.8,2,2.2,2.5c0.1-0.5,0.4-1.3,0.7-2.3c0.3-1.1,0.6-2.3,1-3.8c0.3-1.4,0.7-3,1.1-4.7
		c0.4-1.7,0.8-3.4,1.2-5.1c0.4-1.7,0.7-3.3,1-4.9c0.3-1.6,0.6-3,0.7-4.3C36.2,6.9,36.5,7,36.8,7c0.3,0,0.7,0,1,0c0.4,0,0.7,0,0.9,0
		c0.2,0,0.5-0.1,0.8-0.1c-0.3,1-0.7,2.3-1.3,4.1c-0.5,1.7-1.1,3.7-1.6,5.8c-0.6,2.1-1.2,4.3-1.8,6.6c-0.6,2.3-1.1,4.4-1.6,6.5
		s-0.9,3.8-1.3,5.4c-0.4,1.6-0.6,2.7-0.7,3.3h-0.8c-0.3-0.4-1-1.2-2-2.5c-1-1.3-2.3-2.8-3.7-4.6c-1.4-1.7-2.9-3.6-4.6-5.6
		c-1.6-2-3.2-3.8-4.6-5.6c-1.5-1.7-2.7-3.2-3.8-4.5c-1.1-1.3-1.8-2.1-2.2-2.5c-0.3,0.9-0.6,2-0.9,3.4c-0.4,1.4-0.7,2.9-1.1,4.5
		c-0.4,1.6-0.8,3.3-1.2,5c-0.4,1.7-0.8,3.3-1.1,4.9c-0.3,1.6-0.6,2.9-0.9,4.2c-0.2,1.2-0.4,2.2-0.5,2.8c-0.3,0-0.6,0-0.9,0h-1H1
		c-0.3,0-0.7,0-1,0c0.4-1,0.9-2.3,1.4-4.1C2,32.1,2.5,30.1,3.1,28c0.6-2.1,1.2-4.3,1.8-6.6s1.2-4.4,1.7-6.4c0.5-2,0.9-3.8,1.3-5.3
		c0.4-1.5,0.6-2.6,0.8-3.3h0.7C9.9,7.2,10.7,8.3,11.8,9.8"/>
</g>
<path id="Fill-27" class="st5" d="M48.7,137.6c1.1,1.2,2.9,1.9,5.4,1.9c2.1,0,3.8-0.5,5.3-1.4c1.4-0.9,2.6-2.1,3.5-3.4
	c0.9-1.3,1.6-2.7,2-4.2c0.4-1.5,0.6-2.8,0.6-3.9c0-0.9-0.2-1.8-0.5-2.6c-0.3-0.8-0.8-1.5-1.4-2.1c-0.6-0.6-1.4-1.1-2.3-1.4
	c-0.9-0.3-2-0.5-3.1-0.5c-2,0-3.7,0.4-5.1,1.3c-1.4,0.9-2.6,2-3.4,3.3c-0.9,1.3-1.5,2.7-1.9,4.2c-0.4,1.5-0.6,2.9-0.6,4.2
	C47.1,134.8,47.6,136.4,48.7,137.6 M43.9,127c0.7-1.6,1.7-3,3-4.3c1.3-1.3,2.9-2.3,4.8-3.1c1.9-0.8,4-1.2,6.4-1.2
	c2.2,0,4,0.3,5.5,0.8c1.5,0.5,2.7,1.2,3.6,2c0.9,0.8,1.6,1.8,2,2.8c0.4,1.1,0.6,2.2,0.6,3.3c0,1.7-0.4,3.3-1.1,4.9
	c-0.7,1.6-1.8,3.1-3.1,4.4c-1.4,1.3-3,2.3-4.9,3c-1.9,0.7-4,1.1-6.4,1.1c-2.3,0-4.1-0.3-5.6-0.8c-1.5-0.5-2.6-1.3-3.5-2.2
	c-0.9-0.9-1.5-1.9-1.8-3c-0.3-1.1-0.5-2.1-0.5-3.1C42.8,130.2,43.1,128.6,43.9,127"/>
<path id="Fill-29" class="st5" d="M84.5,116.4c-0.3,1-0.6,2.1-0.8,3.2c0.8,0,1.8,0,2.8-0.1c1,0,2-0.1,2.9-0.1
	c-0.2,0.6-0.3,1.2-0.3,1.8c-0.9,0-1.9-0.1-3-0.1c-1,0-2-0.1-2.8-0.1l-2.1,8.6c-0.1,0.5-0.2,1-0.4,1.6c-0.1,0.6-0.3,1.2-0.4,1.8
	c-0.1,0.6-0.2,1.1-0.3,1.7c-0.1,0.5-0.1,1-0.1,1.3c0,0.6,0.1,1.1,0.4,1.6c0.3,0.4,0.6,0.8,1,1c0.4,0.3,0.8,0.4,1.3,0.6
	c0.5,0.1,0.9,0.2,1.3,0.2c0.6,0,1.2-0.1,1.9-0.3c0.6-0.2,1.2-0.4,1.8-0.7l-0.1,1.2c-0.7,0.5-1.6,0.8-2.7,1c-1,0.2-2,0.3-2.9,0.3
	c-0.7,0-1.4-0.1-2.1-0.3c-0.7-0.2-1.3-0.4-1.9-0.8c-0.5-0.3-1-0.8-1.3-1.3c-0.3-0.5-0.5-1.1-0.5-1.8c0-0.6,0.1-1.2,0.2-1.9
	s0.3-1.4,0.5-2.1c0.4-1.6,0.7-2.8,1-3.8c0.3-1,0.5-1.8,0.7-2.6c0.2-0.8,0.4-1.6,0.6-2.3c0.2-0.8,0.4-1.7,0.7-2.9c-0.5,0-1.1,0-1.7,0
	c-0.6,0-1.3,0.1-1.9,0.1c0.1-0.2,0.2-0.5,0.2-0.7c0.1-0.2,0.1-0.6,0.1-1c0.6,0,1.2,0.1,1.8,0.1c0.6,0,1.2,0.1,1.7,0.1l1-4.9l4.8-1.5
	C85.1,114.3,84.8,115.3,84.5,116.4"/>
<path id="Fill-31" class="st5" d="M96.5,138.1c0.9,0.6,1.8,0.9,3,0.9c1.5,0,2.9-0.3,4.1-1c1.2-0.7,2.2-1.5,3.1-2.5
	c0.2-1.1,0.5-2.1,0.7-3.2c0.3-1,0.6-2.1,0.9-3.2c-0.8,0.2-1.7,0.3-2.5,0.4c-0.8,0.1-1.6,0.3-2.5,0.4c-0.9,0.2-1.8,0.4-2.8,0.7
	c-1,0.3-1.8,0.6-2.6,1c-0.8,0.4-1.4,1-1.9,1.6c-0.5,0.6-0.8,1.4-0.8,2.3C95.2,136.6,95.6,137.5,96.5,138.1 M101.1,119.1
	c1.4-0.4,3-0.6,4.6-0.6c2.3,0,4.1,0.5,5.5,1.4c1.4,0.9,2.1,2.2,2.1,3.6c0,0.6-0.1,1.3-0.2,2c-0.2,0.7-0.3,1.2-0.4,1.6l-1.6,5.6
	c-0.3,1-0.5,1.8-0.6,2.4c-0.1,0.6-0.2,1.2-0.2,1.6c0,0.5,0.2,1,0.5,1.4c0.3,0.4,0.9,0.6,1.6,0.6c0.3,0,0.6,0,0.8-0.1
	c0.2-0.1,0.4-0.2,0.6-0.3l0.3,1c-0.6,0.3-1.3,0.6-1.9,0.8c-0.7,0.2-1.4,0.3-2.1,0.3c-1.1,0-2-0.3-2.6-0.8c-0.6-0.5-0.9-1.2-1-2.2
	c-1.1,1-2.3,1.8-3.7,2.4c-1.4,0.7-3,1-4.8,1c-0.8,0-1.6-0.1-2.4-0.3c-0.8-0.2-1.5-0.5-2.2-0.9c-0.6-0.4-1.2-0.9-1.6-1.6
	c-0.4-0.6-0.6-1.3-0.6-2.1c0-1.5,0.5-2.6,1.4-3.6c0.9-0.9,2-1.6,3.3-2.2c1.3-0.5,2.6-0.9,3.9-1.2c1.4-0.3,2.4-0.5,3.3-0.6
	c0.7-0.1,1.5-0.2,2.4-0.3c0.8-0.1,1.5-0.3,2-0.4c0.8-0.3,1.3-0.7,1.5-1.4c0.2-0.7,0.3-1.3,0.3-2c0-1.4-0.5-2.4-1.6-3
	c-1.1-0.7-2.4-1-3.9-1c-1.5,0-2.8,0.3-3.9,0.8c-1.1,0.6-2.1,1.3-3.1,2.2h-0.7l0.8-2.5C98.2,120.1,99.6,119.5,101.1,119.1"/>
<path id="Fill-33" class="st5" d="M127.7,110.1c0.5-0.4,1.1-0.6,1.9-0.6c0.7,0,1.4,0.2,1.9,0.6c0.5,0.4,0.8,0.9,0.8,1.5
	c0,0.6-0.3,1.1-0.8,1.5c-0.5,0.4-1.1,0.6-1.9,0.6c-0.7,0-1.4-0.2-1.9-0.6c-0.5-0.4-0.8-0.9-0.8-1.5
	C126.9,111.1,127.2,110.6,127.7,110.1 M129.2,121.2c-0.3,1-0.7,2.2-1,3.5c-0.4,1.3-0.8,2.7-1.1,4.2c-0.4,1.5-0.7,2.9-1.1,4.4
	c-0.3,1.4-0.7,2.8-0.9,4.1c-0.3,1.3-0.5,2.3-0.6,3.1c-0.4,0-0.8-0.1-1.3-0.1h-1.3h-1.2c-0.3,0-0.7,0-1,0.1c0.4-1,0.8-2.2,1.3-3.6
	c0.4-1.4,0.9-2.9,1.3-4.4c0.4-1.5,0.8-3,1.2-4.5c0.4-1.5,0.7-2.9,1-4.1c0.3-1.2,0.5-2.3,0.7-3.2c0.2-0.9,0.3-1.5,0.3-1.7
	c0.7,0.1,1.5,0.2,2.3,0.2c0.9,0,1.7-0.1,2.2-0.2C129.7,119.4,129.5,120.2,129.2,121.2"/>
<path id="Fill-35" class="st5" d="M149.3,122.3c-0.4-0.1-0.8-0.1-1.2-0.1c-1.3,0-2.5,0.4-3.8,1.3c-1.2,0.9-2.1,2.3-2.8,4.1
	c-0.1,0.1-0.2,0.5-0.4,1c-0.2,0.6-0.4,1.3-0.6,2.1c-0.2,0.8-0.4,1.7-0.7,2.6c-0.2,1-0.5,1.9-0.7,2.8c-0.2,0.9-0.4,1.8-0.6,2.5
	c-0.2,0.8-0.3,1.4-0.4,1.8c-0.3,0-0.6-0.1-0.9-0.1h-1.1h-1.2c-0.4,0-0.7,0-1.1,0.1c0.2-0.5,0.5-1.3,0.8-2.4c0.3-1.1,0.7-2.3,1-3.6
	c0.4-1.3,0.7-2.8,1.1-4.2c0.4-1.5,0.7-2.9,1-4.3c0.3-1.4,0.6-2.7,0.8-3.9c0.3-1.2,0.4-2.2,0.5-3c0.3,0.1,0.6,0.1,1,0.1
	c0.4,0,0.8,0,1.1,0c0.8,0,1.5-0.1,2-0.2c-0.1,0.2-0.2,0.4-0.3,0.8c-0.1,0.4-0.3,0.8-0.4,1.2c-0.1,0.5-0.3,0.9-0.4,1.4
	c-0.1,0.5-0.2,1-0.3,1.5h0.3c0.6-0.6,1.2-1.2,1.8-1.9c0.6-0.6,1.2-1.2,1.9-1.7c0.7-0.5,1.4-0.9,2.3-1.2c0.8-0.3,1.8-0.5,2.8-0.4
	c-0.2,0.8-0.3,1.4-0.4,2c-0.1,0.6-0.1,1.1-0.1,1.7l-0.5,0.2C150,122.4,149.7,122.4,149.3,122.3"/>
<path id="Fill-37" class="st5" d="M165.4,120.2c-0.9,0.2-1.8,0.6-2.6,1.2c-0.9,0.6-1.7,1.4-2.4,2.4c-0.7,1-1.3,2.3-1.7,3.9
	c1.1,0.1,2.4,0.1,3.7,0.1c1.4,0,2.6,0,3.7,0h1.8c0.9,0,1.9,0,2.9,0c1,0,1.9-0.1,2.6-0.2c0.1-0.3,0.1-0.6,0.2-1
	c0.1-0.4,0.1-0.9,0.1-1.5c0-1-0.2-1.8-0.5-2.5c-0.3-0.7-0.8-1.3-1.4-1.7c-0.6-0.4-1.2-0.7-1.9-0.9c-0.7-0.2-1.4-0.3-2.1-0.3
	C167.1,119.9,166.3,120,165.4,120.2 M169.3,140.4c-1.5,0.3-3.1,0.4-4.6,0.4c-1.2,0-2.4-0.1-3.7-0.4c-1.3-0.3-2.5-0.7-3.5-1.5
	c-1.1-0.7-2-1.7-2.7-2.9c-0.7-1.2-1-2.7-1-4.5c0-1.8,0.3-3.5,1-5.1c0.7-1.6,1.6-3,2.9-4.1c1.2-1.2,2.7-2.1,4.5-2.8
	c1.7-0.7,3.6-1,5.7-1c1.3,0,2.6,0.1,3.7,0.4c1.2,0.3,2.2,0.7,3.1,1.3c0.9,0.6,1.6,1.4,2.2,2.3c0.5,1,0.8,2.1,0.8,3.5
	c0,0.9-0.1,1.6-0.2,2.2c-0.1,0.6-0.3,1.1-0.4,1.5c-0.8,0-1.5-0.1-2.1-0.1c-0.6,0-1.2-0.1-1.8-0.1c-0.6,0-1.2,0-1.9,0
	c-0.7,0-1.4,0-2.2,0h-4h-1.7c-0.9,0-1.7,0-2.6,0c-0.9,0-1.6,0-2.3,0c-0.1,0.3-0.2,0.7-0.2,1.1c-0.1,0.4-0.1,0.9-0.1,1.6
	c0,1.5,0.3,2.7,0.8,3.6c0.5,0.9,1.2,1.6,2,2.1c0.8,0.5,1.6,0.9,2.6,1c0.9,0.2,1.8,0.3,2.5,0.3c1.1,0,2-0.1,2.9-0.3
	c0.9-0.2,1.6-0.4,2.3-0.6c0.7-0.2,1.3-0.5,1.7-0.8c0.5-0.3,0.9-0.5,1.2-0.7h0.2l-0.7,2.1C172.2,139.6,170.8,140.1,169.3,140.4"/>
<g id="Group-41" transform="translate(180.227390, 112.182563)">
	<g id="Clip-40">
	</g>
	<defs>
		<filter id="Adobe_OpacityMaskFilter_2_" filterUnits="userSpaceOnUse" x="0.4" y="6.2" width="19.2" height="22.5">
			<feColorMatrix  type="matrix" values="1 0 0 0 0  0 1 0 0 0  0 0 1 0 0  0 0 0 1 0"/>
		</filter>
	</defs>
	<mask maskUnits="userSpaceOnUse" x="0.4" y="6.2" width="19.2" height="22.5" id="mask-6_1_">
		<g class="st6">
			<polygon id="path-5_1_" class="st0" points="0.4,6.2 19.6,6.2 19.6,28.7 0.4,28.7 			"/>
		</g>
	</mask>
	<path id="Fill-39" class="st7" d="M16,8.5c-0.8-0.5-1.8-0.7-2.8-0.7c-0.8,0-1.5,0.1-2.2,0.4c-0.6,0.3-1.2,0.6-1.6,1
		c-0.5,0.4-0.8,0.9-1,1.4c-0.2,0.5-0.4,1-0.4,1.5c0,0.5,0.1,1,0.4,1.4c0.3,0.4,0.6,0.8,1,1.1c0.4,0.3,0.9,0.6,1.5,0.8
		c0.6,0.2,1.2,0.5,1.8,0.7c0.6,0.2,1.2,0.4,1.8,0.7c0.6,0.3,1.1,0.6,1.6,0.9c0.5,0.4,0.9,0.8,1.2,1.3c0.3,0.5,0.4,1.1,0.4,1.9
		c0,1.1-0.3,2.1-0.9,3c-0.6,1-1.4,1.8-2.4,2.5c-1,0.7-2.2,1.3-3.6,1.7c-1.4,0.4-2.9,0.6-4.5,0.6c-1.1,0-2.2-0.1-3.1-0.3
		c-0.9-0.2-1.9-0.5-2.8-1c0.4-0.6,0.7-1.1,1-1.7c0.3-0.6,0.5-1,0.7-1.4h0.4c0.4,0.9,1.1,1.6,2.1,2.1c1,0.5,2.1,0.7,3.3,0.7
		c1.1,0,2-0.2,2.7-0.5c0.8-0.3,1.4-0.7,1.8-1.1c0.5-0.5,0.8-1,1.1-1.5c0.2-0.6,0.4-1.1,0.4-1.6c0-1-0.4-1.7-1.1-2.2
		c-0.7-0.5-1.8-1-3.3-1.5C9,18.5,8.4,18.3,7.8,18c-0.6-0.3-1.1-0.6-1.6-1c-0.5-0.4-0.9-0.9-1.2-1.4c-0.3-0.6-0.4-1.3-0.4-2.1
		c0-0.8,0.2-1.6,0.5-2.5C5.5,10.2,6,9.4,6.8,8.7s1.8-1.3,3.1-1.8c1.3-0.5,2.8-0.7,4.7-0.7c1,0,1.8,0.1,2.6,0.2
		c0.7,0.1,1.5,0.4,2.4,0.7c-0.5,1.1-0.9,1.8-1.1,2.2c-0.2,0.4-0.3,0.8-0.4,1.1h-0.5C17.4,9.6,16.8,8.9,16,8.5"/>
</g>
<path id="Fill-42" class="st0" d="M30.4,169.8c0.7,0.7,1.7,1.1,3.1,1.1c1.3,0,2.4-0.3,3.2-0.9c0.8-0.6,1.5-1.4,2-2.2
	c0.5-0.9,0.9-1.8,1.1-2.7c0.2-0.9,0.3-1.7,0.3-2.3c0-0.3,0-0.7-0.1-1.1c-0.1-0.4-0.3-0.9-0.6-1.3c-0.3-0.4-0.7-0.8-1.3-1.1
	c-0.5-0.3-1.3-0.4-2.2-0.4c-1.3,0-2.4,0.3-3.3,0.9c-0.9,0.6-1.5,1.3-2,2.1c-0.5,0.8-0.8,1.7-1,2.6c-0.2,0.9-0.3,1.6-0.3,2.1
	C29.3,167.9,29.6,169,30.4,169.8 M37.9,170c-0.4,0.3-0.8,0.7-1.3,0.9c-0.5,0.3-1,0.5-1.7,0.7c-0.6,0.2-1.4,0.2-2.2,0.2
	c-1,0-1.9-0.1-2.7-0.4c-0.8-0.3-1.4-0.7-1.9-1.2c-0.5-0.5-0.9-1.1-1.1-1.8c-0.3-0.7-0.4-1.4-0.4-2.1c0-0.9,0.2-1.8,0.5-2.8
	c0.4-1,0.9-1.9,1.7-2.8c0.7-0.8,1.7-1.5,2.8-2.1c1.1-0.6,2.4-0.8,3.9-0.8c0.9,0,1.7,0.1,2.3,0.3c0.6,0.2,1.1,0.5,1.5,0.8
	c0.4,0.3,0.7,0.6,0.9,0.9c0.2,0.3,0.4,0.6,0.5,0.8h0.1c0.4-1.8,0.8-3.6,1.3-5.4c0.4-1.8,0.8-3.5,1.1-5c0.3,0.1,0.8,0.1,1.4,0.1
	c0.5,0,1,0,1.3-0.1c-0.5,1.7-0.9,3.2-1.3,4.5c-0.4,1.3-0.7,2.5-1,3.7c-0.3,1.2-0.6,2.4-0.9,3.6c-0.3,1.2-0.6,2.6-1,4.1
	c-0.2,0.7-0.4,1.5-0.6,2.5c-0.2,1-0.4,1.9-0.6,2.8c-0.2,0-0.3,0-0.5,0h-0.7h-0.7c-0.2,0-0.4,0-0.6,0l0.8-2.5
	C38.6,169.3,38.3,169.6,37.9,170"/>
<path id="Fill-44" class="st0" d="M53.8,158.8c-0.6,0.1-1.1,0.4-1.6,0.8c-0.5,0.4-1,0.9-1.5,1.5c-0.5,0.6-0.8,1.4-1.1,2.4
	c0.7,0,1.5,0.1,2.3,0.1c0.8,0,1.6,0,2.3,0h1.1c0.6,0,1.2,0,1.8,0c0.6,0,1.2,0,1.6-0.1c0-0.2,0.1-0.4,0.1-0.6c0-0.2,0.1-0.5,0.1-0.9
	c0-0.6-0.1-1.2-0.3-1.6c-0.2-0.4-0.5-0.8-0.8-1.1c-0.4-0.3-0.7-0.5-1.2-0.6c-0.4-0.1-0.9-0.2-1.3-0.2
	C54.9,158.6,54.4,158.7,53.8,158.8 M56.2,171.4c-0.9,0.2-1.9,0.3-2.9,0.3c-0.7,0-1.5-0.1-2.3-0.2c-0.8-0.2-1.5-0.5-2.2-0.9
	s-1.2-1-1.7-1.8c-0.4-0.8-0.6-1.7-0.6-2.8c0-1.1,0.2-2.2,0.6-3.2c0.4-1,1-1.8,1.8-2.6c0.8-0.7,1.7-1.3,2.8-1.7
	c1.1-0.4,2.3-0.6,3.6-0.6c0.8,0,1.6,0.1,2.3,0.2c0.7,0.2,1.4,0.4,2,0.8c0.6,0.4,1,0.8,1.4,1.4c0.3,0.6,0.5,1.3,0.5,2.2
	c0,0.5,0,1-0.1,1.4c-0.1,0.4-0.2,0.7-0.2,0.9c-0.5,0-0.9,0-1.3,0c-0.4,0-0.8,0-1.1,0c-0.4,0-0.8,0-1.2,0c-0.4,0-0.9,0-1.4,0h-2.5
	h-1.1c-0.5,0-1.1,0-1.6,0c-0.5,0-1,0-1.4,0c0,0.2-0.1,0.4-0.1,0.7c0,0.3-0.1,0.6-0.1,1c0,0.9,0.2,1.7,0.5,2.3c0.3,0.6,0.8,1,1.2,1.3
	c0.5,0.3,1,0.5,1.6,0.7c0.6,0.1,1.1,0.2,1.6,0.2c0.7,0,1.3-0.1,1.8-0.2c0.5-0.1,1-0.2,1.4-0.4c0.4-0.1,0.8-0.3,1.1-0.5
	c0.3-0.2,0.6-0.3,0.8-0.4h0.1l-0.5,1.3C58.1,171,57.2,171.3,56.2,171.4"/>
<path id="Fill-46" class="st0" d="M79.9,164.4c-0.2,0.8-0.4,1.5-0.5,2.3c-0.2,0.7-0.3,1.5-0.5,2.3c-0.2,0.8-0.4,1.6-0.6,2.5h-0.6
	h-0.8h-0.9h-0.7c0.4-1.3,0.9-2.8,1.4-4.6c0.5-1.7,0.9-3.5,1.4-5.3c0.5-1.8,0.9-3.5,1.3-5.2c0.4-1.7,0.7-3.1,1-4.4c1.2,0,2.3,0,3.3,0
	c1,0,2,0,2.8,0c0.9,0,1.7,0,2.6,0c0.9,0,1.6,0,2,0c-0.1,0.3-0.2,0.5-0.3,0.7c-0.1,0.2-0.1,0.4-0.1,0.8c-0.5-0.1-1.1-0.1-1.7-0.2
	c-0.7,0-1.4-0.1-2.1-0.1c-0.7,0-1.4,0-2.1,0c-0.7,0-1.3,0-1.8,0c-0.5,1.6-0.9,2.9-1.2,4.1c-0.3,1.2-0.6,2.3-0.9,3.3h4
	c0.7,0,1.4,0,2.2-0.1c0.8,0,1.4-0.1,1.8-0.1c-0.1,0.3-0.2,0.5-0.2,0.7c0,0.2-0.1,0.4-0.1,0.7c-0.8-0.1-1.6-0.1-2.4-0.2
	c-0.8,0-1.6,0-2.4,0h-3.1C80.3,162.7,80.1,163.6,79.9,164.4"/>
<path id="Fill-48" class="st0" d="M100.3,160.1c-0.2-0.1-0.5-0.1-0.8-0.1c-0.8,0-1.6,0.3-2.3,0.8c-0.8,0.6-1.3,1.4-1.7,2.5
	c0,0.1-0.1,0.3-0.2,0.7c-0.1,0.4-0.2,0.8-0.4,1.3c-0.1,0.5-0.3,1.1-0.4,1.7c-0.1,0.6-0.3,1.2-0.4,1.8c-0.1,0.6-0.3,1.1-0.4,1.6
	c-0.1,0.5-0.2,0.8-0.2,1.1h-0.6h-0.7h-0.7h-0.7c0.1-0.3,0.3-0.8,0.5-1.5s0.4-1.4,0.6-2.3c0.2-0.8,0.5-1.7,0.7-2.6
	c0.2-0.9,0.5-1.8,0.6-2.7c0.2-0.9,0.4-1.7,0.5-2.4c0.2-0.7,0.3-1.4,0.3-1.9c0.2,0,0.4,0.1,0.6,0.1c0.2,0,0.5,0,0.7,0
	c0.5,0,0.9,0,1.3-0.1c0,0.1-0.1,0.3-0.2,0.5c-0.1,0.2-0.2,0.5-0.3,0.7c-0.1,0.3-0.2,0.6-0.3,0.9c-0.1,0.3-0.1,0.6-0.2,0.9h0.2
	c0.4-0.4,0.7-0.8,1.1-1.2c0.4-0.4,0.8-0.8,1.2-1.1c0.4-0.3,0.9-0.6,1.4-0.8c0.5-0.2,1.1-0.3,1.8-0.3c-0.1,0.5-0.2,0.9-0.3,1.2
	c-0.1,0.4-0.1,0.7-0.1,1.1l-0.3,0.1C100.8,160.2,100.6,160.2,100.3,160.1"/>
<path id="Fill-50" class="st0" d="M105.7,170c0.5,0.4,1.2,0.6,1.9,0.6c1,0,1.8-0.2,2.6-0.7c0.8-0.4,1.4-1,1.9-1.6
	c0.1-0.7,0.3-1.3,0.4-2c0.2-0.7,0.4-1.3,0.6-2c-0.5,0.1-1,0.2-1.5,0.3c-0.5,0.1-1,0.2-1.5,0.3c-0.6,0.1-1.2,0.3-1.8,0.4
	c-0.6,0.2-1.2,0.4-1.6,0.7c-0.5,0.3-0.9,0.6-1.2,1c-0.3,0.4-0.5,0.9-0.5,1.5C104.9,169.1,105.2,169.6,105.7,170 M108.6,158.1
	c0.9-0.3,1.9-0.4,2.9-0.4c1.4,0,2.6,0.3,3.4,0.9c0.9,0.6,1.3,1.4,1.3,2.3c0,0.4-0.1,0.8-0.2,1.2c-0.1,0.4-0.2,0.8-0.3,1l-1,3.5
	c-0.2,0.6-0.3,1.1-0.4,1.5c-0.1,0.4-0.1,0.7-0.1,1c0,0.3,0.1,0.6,0.3,0.9c0.2,0.3,0.6,0.4,1,0.4c0.2,0,0.4,0,0.5-0.1
	c0.1,0,0.3-0.1,0.4-0.2l0.2,0.6c-0.4,0.2-0.8,0.4-1.2,0.5c-0.4,0.1-0.9,0.2-1.3,0.2c-0.7,0-1.2-0.2-1.6-0.5
	c-0.4-0.3-0.6-0.7-0.6-1.3c-0.7,0.6-1.5,1.1-2.3,1.5c-0.9,0.4-1.9,0.6-3,0.6c-0.5,0-1-0.1-1.5-0.2c-0.5-0.1-1-0.3-1.4-0.6
	c-0.4-0.3-0.7-0.6-1-1c-0.3-0.4-0.4-0.8-0.4-1.3c0-0.9,0.3-1.7,0.9-2.2c0.6-0.6,1.3-1,2.1-1.4c0.8-0.3,1.6-0.6,2.5-0.7
	c0.8-0.2,1.5-0.3,2.1-0.4c0.5-0.1,0.9-0.1,1.5-0.2c0.5-0.1,0.9-0.2,1.3-0.3c0.5-0.2,0.8-0.5,0.9-0.9c0.1-0.4,0.2-0.8,0.2-1.2
	c0-0.9-0.3-1.5-1-1.9c-0.7-0.4-1.5-0.6-2.4-0.6c-1,0-1.8,0.2-2.5,0.5c-0.7,0.4-1.3,0.8-1.9,1.4h-0.4l0.5-1.5
	C106.8,158.8,107.7,158.4,108.6,158.1"/>
<path id="Fill-52" class="st0" d="M125.8,160.2c0.2-0.3,0.5-0.5,0.9-0.8c0.4-0.3,0.8-0.5,1.3-0.7c0.5-0.2,1-0.4,1.6-0.6
	c0.6-0.2,1.2-0.2,1.8-0.2c0.6,0,1.2,0.1,1.8,0.2c0.6,0.1,1.1,0.4,1.5,0.6c0.4,0.3,0.8,0.6,1.1,1.1c0.3,0.4,0.4,0.9,0.4,1.5
	c0,0.2,0,0.4,0,0.5c0,0.2,0,0.4-0.1,0.6c-0.1,0.2-0.1,0.6-0.2,0.9c-0.1,0.4-0.2,0.9-0.4,1.5c-0.1,0.3-0.2,0.8-0.4,1.4
	c-0.2,0.6-0.3,1.3-0.5,1.9c-0.2,0.7-0.3,1.3-0.4,1.9c-0.1,0.6-0.2,1-0.2,1.3h-0.6h-0.7h-0.8h-0.7c0.1-0.2,0.2-0.5,0.4-0.9
	c0.2-0.5,0.3-1,0.5-1.6c0.2-0.6,0.4-1.3,0.6-2c0.2-0.7,0.4-1.4,0.5-2c0.2-0.7,0.3-1.3,0.4-1.8c0.1-0.6,0.2-1,0.2-1.3
	c0-0.4-0.1-0.8-0.3-1.1c-0.2-0.3-0.5-0.6-0.8-0.8c-0.3-0.2-0.7-0.4-1.1-0.5s-0.8-0.2-1.2-0.2c-0.3,0-0.6,0-1.1,0.1
	c-0.5,0.1-0.9,0.2-1.4,0.4c-0.5,0.2-1,0.5-1.4,0.9c-0.4,0.4-0.8,0.9-1,1.6c-0.1,0.3-0.3,0.8-0.4,1.3c-0.2,0.5-0.3,1.1-0.5,1.8
	c-0.2,0.6-0.3,1.3-0.5,1.9c-0.2,0.7-0.3,1.3-0.4,1.9c-0.1,0.6-0.2,1.1-0.3,1.5c-0.1,0.4-0.1,0.7-0.2,0.8h-0.6h-0.7h-0.7h-0.6
	c0.2-0.4,0.3-0.9,0.6-1.7c0.2-0.7,0.4-1.5,0.7-2.4c0.2-0.9,0.5-1.8,0.7-2.7c0.2-0.9,0.5-1.8,0.7-2.7c0.2-0.9,0.4-1.6,0.5-2.3
	c0.1-0.7,0.3-1.2,0.3-1.6c0.3,0.1,0.8,0.1,1.2,0.1c0.2,0,0.4,0,0.6,0c0.2,0,0.4,0,0.6-0.1l-0.6,2.1L125.8,160.2z"/>
<path id="Fill-54" class="st0" d="M148.2,171.7c-1,0-2-0.1-3-0.3c-0.9-0.2-1.7-0.6-2.4-1c-0.7-0.5-1.2-1.1-1.6-1.8
	c-0.4-0.7-0.6-1.6-0.6-2.6c0-0.9,0.2-1.8,0.6-2.8c0.4-1,1-1.8,1.8-2.6c0.8-0.8,1.9-1.5,3.1-2c1.3-0.5,2.8-0.8,4.6-0.8
	c1.2,0,2.3,0.1,3.1,0.3c0.9,0.2,1.5,0.4,2.1,0.6c-0.1,0.2-0.2,0.4-0.3,0.5c-0.1,0.2-0.1,0.3-0.2,0.4c-0.1,0.1-0.1,0.3-0.2,0.5
	c-0.1,0.2-0.1,0.4-0.2,0.6h-0.2c-0.4-0.6-1-1.1-1.8-1.5c-0.8-0.3-1.6-0.5-2.5-0.5c-1.1,0-2.1,0.2-2.9,0.6c-0.9,0.4-1.6,1-2.3,1.6
	c-0.6,0.7-1.1,1.4-1.5,2.3c-0.3,0.9-0.5,1.7-0.5,2.6c0,1,0.2,1.8,0.6,2.5c0.4,0.6,0.8,1.1,1.4,1.5c0.6,0.3,1.2,0.6,1.8,0.7
	c0.6,0.1,1.2,0.2,1.7,0.2c0.6,0,1.1,0,1.7-0.1c0.5-0.1,1-0.2,1.4-0.4c0.4-0.1,0.8-0.3,1.1-0.4c0.3-0.1,0.6-0.2,0.7-0.3l0.2,0.1
	l-0.5,1.2C151.6,171.4,150,171.7,148.2,171.7"/>
<path id="Fill-56" class="st0" d="M165.3,158.8c-0.6,0.1-1.1,0.4-1.6,0.8c-0.5,0.4-1,0.9-1.5,1.5c-0.5,0.6-0.8,1.4-1.1,2.4
	c0.7,0,1.5,0.1,2.3,0.1c0.8,0,1.6,0,2.3,0h1.1c0.6,0,1.2,0,1.8,0c0.6,0,1.2,0,1.6-0.1c0-0.2,0.1-0.4,0.1-0.6c0-0.2,0.1-0.5,0.1-0.9
	c0-0.6-0.1-1.2-0.3-1.6c-0.2-0.4-0.5-0.8-0.8-1.1c-0.4-0.3-0.7-0.5-1.2-0.6c-0.4-0.1-0.9-0.2-1.3-0.2
	C166.3,158.6,165.8,158.7,165.3,158.8 M167.7,171.4c-0.9,0.2-1.9,0.3-2.9,0.3c-0.7,0-1.5-0.1-2.3-0.2c-0.8-0.2-1.5-0.5-2.2-0.9
	s-1.2-1-1.7-1.8c-0.4-0.8-0.6-1.7-0.6-2.8c0-1.1,0.2-2.2,0.6-3.2c0.4-1,1-1.8,1.8-2.6c0.8-0.7,1.7-1.3,2.8-1.7
	c1.1-0.4,2.3-0.6,3.6-0.6c0.8,0,1.6,0.1,2.3,0.2c0.7,0.2,1.4,0.4,2,0.8c0.6,0.4,1,0.8,1.4,1.4c0.3,0.6,0.5,1.3,0.5,2.2
	c0,0.5,0,1-0.1,1.4c-0.1,0.4-0.2,0.7-0.2,0.9c-0.5,0-0.9,0-1.3,0c-0.4,0-0.8,0-1.1,0c-0.4,0-0.8,0-1.2,0c-0.4,0-0.9,0-1.4,0H165H164
	c-0.5,0-1.1,0-1.6,0c-0.5,0-1,0-1.4,0c0,0.2-0.1,0.4-0.1,0.7c0,0.3-0.1,0.6-0.1,1c0,0.9,0.2,1.7,0.5,2.3c0.3,0.6,0.8,1,1.2,1.3
	c0.5,0.3,1,0.5,1.6,0.7c0.6,0.1,1.1,0.2,1.6,0.2c0.7,0,1.3-0.1,1.8-0.2c0.5-0.1,1-0.2,1.4-0.4c0.4-0.1,0.8-0.3,1.1-0.5
	c0.3-0.2,0.6-0.3,0.8-0.4h0.1l-0.5,1.3C169.5,171,168.6,171.3,167.7,171.4"/>
<g id="Group-60" transform="translate(87.927649, 181.164475)">
	<g id="Clip-59">
	</g>
	<defs>
		<filter id="Adobe_OpacityMaskFilter_3_" filterUnits="userSpaceOnUse" x="0.4" y="6.1" width="30.1" height="6.7">
			<feColorMatrix  type="matrix" values="1 0 0 0 0  0 1 0 0 0  0 0 1 0 0  0 0 0 1 0"/>
		</filter>
	</defs>
	<mask maskUnits="userSpaceOnUse" x="0.4" y="6.1" width="30.1" height="6.7" id="mask-8_1_">
		<g class="st8">
			<polygon id="path-7_1_" class="st0" points="0.4,6.1 30.5,6.1 30.5,12.8 0.4,12.8 			"/>
		</g>
	</mask>
	<path id="Fill-58" class="st9" d="M25.7,12.6c-2.4,0.9-17.6-1.5-21.4-2.3c-4.7-1-5.2-1.5-1.5-2.2c4.5-0.9,18.2-2.8,24.7-1.7
		C33.2,7.4,29.7,11,25.7,12.6"/>
</g>
</svg>
